<svg xmlns="http://www.w3.org/2000/svg" width="17.42" height="19.363"  xmlns:v="https://vecta.io/nano"><path d="M.652 17.395a.7.7 0 0 0 .652-.741v-5.509a1.24 1.24 0 0 1 1.153-1.312h7.087a1.24 1.24 0 0 1 1.153 1.312v1.509c-.038.255.078.508.294.648s.495.14.712 0 .332-.393.294-.648v-1.509c.085-1.447-1.011-2.693-2.457-2.794H2.456C1.011 8.454-.082 9.699.004 11.145v5.509a.7.7 0 0 0 .648.741zM6 8a4 4 0 1 0 0-8 4 4 0 1 0 0 8zm0-6.6A2.6 2.6 0 1 1 3.4 4 2.6 2.6 0 0 1 6 1.402z" fill="#9f9f9f"/><g fill="none" stroke="#9f9f9f" stroke-linecap="round" stroke-width="2"><path d="M14.21 13.757v4.605"/><path d="M16.42 16.06H12"/></g></svg>