<svg xmlns="http://www.w3.org/2000/svg" xmlns:xlink="http://www.w3.org/1999/xlink" width="38" height="38" xmlns:v="https://vecta.io/nano"><g fill="#9f9f9f"><path d="M5.166 25.094c.255-.017.449-.237.434-.492v-3.657c-.026-.452.317-.84.769-.87h4.725c.452.03.795.418.769.87V24.6a.44.44 0 0 0 .669.425.44.44 0 0 0 .2-.425v-3.655a1.76 1.76 0 0 0-1.638-1.853H6.368a1.76 1.76 0 0 0-1.633 1.853V24.6c-.016.255.176.475.431.494zm21 0c.255-.017.449-.237.434-.492v-3.657c-.026-.452.317-.84.769-.87h4.725c.452.03.795.418.769.87V24.6a.44.44 0 0 0 .669.425.44.44 0 0 0 .2-.425v-3.655a1.76 1.76 0 0 0-1.638-1.853h-4.726a1.76 1.76 0 0 0-1.633 1.853V24.6c-.016.255.176.475.431.494zm-11-10c.255-.017.449-.237.434-.492v-3.657c-.026-.452.317-.84.769-.87h4.725c.452.03.795.418.769.87V14.6a.44.44 0 0 0 .669.425.44.44 0 0 0 .2-.425v-3.655a1.76 1.76 0 0 0-1.638-1.853h-4.726a1.76 1.76 0 0 0-1.633 1.853V14.6c-.016.255.176.475.431.494z"/><use xlink:href="#B"/><use xlink:href="#B" x="21"/><use xlink:href="#B" x="10" y="-10"/><path d="M15.166 34.094c.255-.017.449-.237.434-.492v-3.657c-.026-.452.317-.84.769-.87h4.725c.452.03.795.418.769.87V33.6a.44.44 0 0 0 .669.425.44.44 0 0 0 .2-.425v-3.655a1.76 1.76 0 0 0-1.638-1.853h-4.726a1.76 1.76 0 0 0-1.633 1.853V33.6c-.016.255.176.475.431.494z"/><use xlink:href="#B" x="10" y="9"/></g><circle cx="19" cy="19" r="18" fill="none" stroke="#9f9f9f" stroke-width="2"/><path fill="#fff" d="M28 29h8v7h-8z"/><g fill="none" stroke="#9f9f9f" stroke-width="2" stroke-linecap="round"><path d="M30.5 27.5v8"/><path d="M34.5 31.5h-8"/></g><defs ><path id="B" d="M8.662 18.743a2.5 2.5 0 1 0 0-5 2.5 2.5 0 1 0 0 5zm0-4.124c.657 0 1.249.396 1.5 1.003s.112 1.305-.352 1.77-1.163.603-1.77.352-1.003-.844-1.003-1.5c.001-.896.728-1.623 1.624-1.624z"/></defs></svg>