<svg xmlns="http://www.w3.org/2000/svg" width="100" height="100"  fill="#c30" xmlns:v="https://vecta.io/nano"><path d="M50 0C22.386 0 0 22.386 0 50s22.386 50 50 50 50-22.386 50-50A49.97 49.97 0 0 0 50 0zm0 92.188C26.7 92.188 7.812 73.3 7.812 50S26.7 7.812 50 7.812 92.188 26.7 92.188 50a42.16 42.16 0 0 1-12.35 29.838C71.924 87.751 61.191 92.194 50 92.188zm21.256-27.672L56.977 50.237l14.279-14.279c1.249-1.21 1.748-2.999 1.307-4.681s-1.755-2.995-3.436-3.436a4.82 4.82 0 0 0-4.681 1.307L50.167 43.427 35.888 29.148c-1.21-1.249-2.999-1.748-4.681-1.307s-2.995 1.755-3.436 3.436a4.82 4.82 0 0 0 1.307 4.681l14.279 14.279-14.279 14.279c-1.249 1.21-1.748 2.999-1.307 4.681s1.755 2.995 3.436 3.436a4.82 4.82 0 0 0 4.681-1.307l14.279-14.279 14.279 14.279c1.21 1.249 2.999 1.748 4.681 1.307s2.995-1.755 3.436-3.436a4.82 4.82 0 0 0-1.307-4.681z"/></svg>