<svg xmlns="http://www.w3.org/2000/svg" width="29.022" height="30"  fill="#2eb473" xmlns:v="https://vecta.io/nano"><path d="M10.892 16.25H28.13c.507-.06.888-.49.888-1s-.382-.94-.888-1H10.892c-.507.06-.888.49-.888 1s.382.94.888 1z"/><path d="M14.709 22.24c.29 0 .568-.116.771-.324.426-.434.426-1.129 0-1.563l-5.047-5.113 5.047-5.113c.426-.434.426-1.129 0-1.563a1.08 1.08 0 0 0-1.543 0l-5.818 5.894c-.426.434-.426 1.129 0 1.563l5.818 5.894a1.08 1.08 0 0 0 .772.325zM14.616 30a14.55 14.55 0 0 0 13.6-9.513 1.03 1.03 0 0 0-.562-1.325.99.99 0 0 0-1.293.578 12.57 12.57 0 0 1-11.749 8.215A12.81 12.81 0 0 1 1.99 15 12.81 12.81 0 0 1 14.616 2.045a12.57 12.57 0 0 1 11.749 8.215.99.99 0 0 0 1.293.578 1.03 1.03 0 0 0 .562-1.325C26.116 3.813 20.692.02 14.616 0 6.443.117-.095 6.826 0 15c-.095 8.174 6.443 14.883 14.616 15z"/></svg>