<svg xmlns="http://www.w3.org/2000/svg" width="50" height="46"  xmlns:v="https://vecta.io/nano"><path d="M32.238 11.861a.6.6 0 0 0-.862 0l-5.851 6V.624a.61.61 0 0 0-.304-.527.61.61 0 0 0-.609 0 .61.61 0 0 0-.304.527v17.241l-5.851-6a.6.6 0 0 0-.862 0c-.238.247-.238.637 0 .884l6.89 7.07a.6.6 0 0 0 .862 0l6.89-7.07c.238-.247.238-.637 0-.884zM47.5 45.9l-45 .1c-1.28.091-2.394-.865-2.5-2.143V18.143C.106 16.865 1.22 15.909 2.5 16h13.333a.78.78 0 0 1 .833.714.78.78 0 0 1-.833.714H2.5a.78.78 0 0 0-.833.714v4.287h46.666v-4.286a.78.78 0 0 0-.833-.714H34.167a.78.78 0 0 1-.833-.714.78.78 0 0 1 .833-.715H47.5c1.28-.091 2.394.865 2.5 2.143v25.714a2.27 2.27 0 0 1-.824 1.542 2.28 2.28 0 0 1-1.676.501zm-45-1.333h45a.78.78 0 0 0 .833-.714V25.286H1.667v18.571a.78.78 0 0 0 .833.714zM25.167 30H6.833c-.482-.089-.832-.51-.832-1s.35-.911.832-1h18.334c.482.089.832.51.832 1s-.35.911-.832 1zm0 0"/></svg>