<svg xmlns="http://www.w3.org/2000/svg" width="25" height="25"  clip-path="url(#clip-path)" xmlns:v="https://vecta.io/nano"><path d="M18.428 4.825l-1.359-1.359a1.6 1.6 0 0 0-2.253 0L4.703 13.579a.45.45 0 0 0-.121.231l-.68 3.67a.44.44 0 0 0 .512.512l3.67-.68a.45.45 0 0 0 .231-.121L18.428 7.078a1.59 1.59 0 0 0 0-2.253zM4.883 17.012l.411-2.22L7.103 16.6zm3.122-.753L5.636 13.89l8.649-8.649 2.368 2.369zm9.8-9.8l-.532.532-2.367-2.372.532-.532c.279-.278.731-.278 1.01 0l1.359 1.359c.134.134.209.316.209.505s-.075.371-.209.505z" fill="#9f9f9f"/></svg>