<svg xmlns="http://www.w3.org/2000/svg" xmlns:xlink="http://www.w3.org/1999/xlink" width="40" height="40" xmlns:v="https://vecta.io/nano"><g fill="#9f9f9f"><path d="M6.166 26.094c.255-.017.449-.237.434-.492v-3.657c-.026-.452.317-.84.769-.87h4.725c.452.03.795.418.769.87V25.6a.44.44 0 0 0 .669.425.44.44 0 0 0 .2-.425v-3.655a1.76 1.76 0 0 0-1.638-1.853H7.368a1.76 1.76 0 0 0-1.633 1.853V25.6c-.016.255.176.475.431.494zm21 0c.255-.017.449-.237.434-.492v-3.657c-.026-.452.317-.84.769-.87h4.725c.452.03.795.418.769.87V25.6a.44.44 0 0 0 .669.425.44.44 0 0 0 .2-.425v-3.655a1.76 1.76 0 0 0-1.638-1.853h-4.726a1.76 1.76 0 0 0-1.633 1.853V25.6c-.016.255.176.475.431.494zm-11-10c.255-.017.449-.237.434-.492v-3.657c-.026-.452.317-.84.769-.87h4.725c.452.03.795.418.769.87V15.6a.44.44 0 0 0 .669.425.44.44 0 0 0 .2-.425v-3.655a1.76 1.76 0 0 0-1.638-1.853h-4.726a1.76 1.76 0 0 0-1.633 1.853V15.6c-.016.255.176.475.431.494z"/><use xlink:href="#B"/><use xlink:href="#B" x="21"/><use xlink:href="#B" x="10" y="-10"/><path d="M16.166 35.094c.255-.017.449-.237.434-.492v-3.657c-.026-.452.317-.84.769-.87h4.725c.452.03.795.418.769.87V34.6a.44.44 0 0 0 .669.425.44.44 0 0 0 .2-.425v-3.655a1.76 1.76 0 0 0-1.638-1.853h-4.726a1.76 1.76 0 0 0-1.633 1.853V34.6c-.016.255.176.475.431.494z"/><use xlink:href="#B" x="10" y="9"/></g><circle cx="20" cy="20" r="19" fill="none" stroke="#707070" stroke-width="2"/><defs ><path id="B" d="M9.662 19.743a2.5 2.5 0 1 0 0-5 2.5 2.5 0 1 0 0 5zm0-4.124c.657 0 1.249.396 1.5 1.003s.112 1.305-.352 1.77-1.163.603-1.77.352-1.003-.844-1.003-1.5c.001-.896.728-1.623 1.624-1.624z"/></defs></svg>