<svg xmlns="http://www.w3.org/2000/svg" width="42.179" height="43.825"  fill="#9f9f9f" xmlns:v="https://vecta.io/nano"><path d="M41.917 18.176l-8.091-7.74a.91.91 0 0 0-.631-.25h-1.936l2.3-2.2a.83.83 0 0 0 0-1.21L26.751.251a.92.92 0 0 0-1.264 0L22.66 2.959 15.105 10.2a.92.92 0 0 0-.122-.009H8.969a.91.91 0 0 0-.632.251L.262 18.177c-.167.157-.261.376-.262.605v24.187c.005.232.102.453.27.613a.88.88 0 0 0 .624.243h40.391a.87.87 0 0 0 .624-.243.88.88 0 0 0 .27-.613V34.3c-.016-.482-.411-.864-.893-.864s-.877.382-.893.864v7.814H1.787V19.638h38.6v15.1c0 .473.4 0 .894 0s.894 1.067.894.594v-16.55a.84.84 0 0 0-.262-.606zM23.923 4.169l2.2-2.1 5.545 5.311-6.972 6.678h-7.363l-1.866-1.787zM3.05 17.926L9.339 11.9H13.4a.83.83 0 0 0 .172.976l1.234 1.182h-2.818c-.316-.015-.614.144-.777.416s-.162.61 0 .881a.86.86 0 0 0 .777.416h18.2c.316.015.614-.144.777-.416s.162-.61 0-.881a.86.86 0 0 0-.777-.416h-2.969l2.253-2.158h3.352l6.3 6.028zm7.727 12.356c0 4.171 2.513 7.932 6.367 9.528s8.29.714 11.239-2.236 3.832-7.386 2.235-11.239-5.357-6.366-9.529-6.366c-5.693.007-10.305 4.62-10.312 10.313zm18.281 0a7.97 7.97 0 0 1-7.97 7.967 7.97 7.97 0 0 1-7.968-7.97 7.97 7.97 0 0 1 7.969-7.968 7.98 7.98 0 0 1 7.969 7.971zm-10.774-1.12a1.172 1.172 0 1 0-1.658 1.657l2.571 2.571a1.17 1.17 0 0 0 1.657 0l4.7-4.7a1.17 1.17 0 0 0-.515-1.982 1.17 1.17 0 0 0-1.142.325l-3.869 3.869zm0 0"/></svg>