<svg xmlns="http://www.w3.org/2000/svg" width="20" height="20"  fill="#9f9f9f" xmlns:v="https://vecta.io/nano"><path d="M19.758 11.137A4.5 4.5 0 0 1 19.541 10a4.5 4.5 0 0 1 .217-1.137 3.32 3.32 0 0 0 .142-1.958 3.51 3.51 0 0 0-1.345-1.54c-.311-.218-.594-.474-.842-.761a4.44 4.44 0 0 1-.5-1.013 3.46 3.46 0 0 0-1.1-1.685 3.7 3.7 0 0 0-1.985-.477c-.399-.004-.796-.055-1.183-.152-.353-.134-.689-.31-1-.525A3.76 3.76 0 0 0 10 0a3.76 3.76 0 0 0-1.943.752c-.311.215-.647.391-1 .525-.387.097-.784.148-1.183.152a3.71 3.71 0 0 0-1.985.477 3.46 3.46 0 0 0-1.099 1.68 4.45 4.45 0 0 1-.5 1.014c-.248.288-.531.544-.842.763A3.52 3.52 0 0 0 .1 6.905a3.32 3.32 0 0 0 .142 1.959A4.5 4.5 0 0 1 .459 10a4.5 4.5 0 0 1-.217 1.137 3.32 3.32 0 0 0-.142 1.96c.286.635.753 1.17 1.344 1.539a4.59 4.59 0 0 1 .841.761 4.43 4.43 0 0 1 .5 1.014c.192.658.575 1.245 1.1 1.686a3.71 3.71 0 0 0 1.984.476c.399.004.796.055 1.183.152a4.67 4.67 0 0 1 1 .524A3.77 3.77 0 0 0 10 20a3.77 3.77 0 0 0 1.945-.752 4.66 4.66 0 0 1 1-.524c.387-.097.784-.148 1.183-.152a3.71 3.71 0 0 0 1.984-.476 3.46 3.46 0 0 0 1.1-1.687c.123-.357.291-.697.5-1.012a4.61 4.61 0 0 1 .842-.761 3.52 3.52 0 0 0 1.346-1.54 3.32 3.32 0 0 0-.142-1.959zm-.682 1.681a2.88 2.88 0 0 1-1.054 1.13 5.31 5.31 0 0 0-1 .923 5.16 5.16 0 0 0-.622 1.215 2.81 2.81 0 0 1-.79 1.3 3.07 3.07 0 0 1-1.532.321 5.72 5.72 0 0 0-1.4.19 5.37 5.37 0 0 0-1.2.617c-.43.336-.943.55-1.484.62a3.04 3.04 0 0 1-1.483-.62c-.372-.255-.776-.463-1.2-.617a5.74 5.74 0 0 0-1.4-.19 3.07 3.07 0 0 1-1.524-.321 2.81 2.81 0 0 1-.79-1.3 5.15 5.15 0 0 0-.618-1.215 5.3 5.3 0 0 0-1-.923 2.88 2.88 0 0 1-1.053-1.13 2.69 2.69 0 0 1 .156-1.45A5.22 5.22 0 0 0 1.33 10a5.21 5.21 0 0 0-.248-1.367 2.68 2.68 0 0 1-.157-1.447 2.88 2.88 0 0 1 1.053-1.13 5.28 5.28 0 0 0 1-.924A5.14 5.14 0 0 0 3.6 3.913a2.8 2.8 0 0 1 .788-1.3 3.07 3.07 0 0 1 1.531-.317 5.76 5.76 0 0 0 1.395-.19c.424-.155.828-.362 1.2-.618A3.05 3.05 0 0 1 10 .87a3.05 3.05 0 0 1 1.483.62c.372.256.775.464 1.2.618a5.75 5.75 0 0 0 1.395.19 3.07 3.07 0 0 1 1.533.322 2.81 2.81 0 0 1 .789 1.3 5.13 5.13 0 0 0 .619 1.215 5.3 5.3 0 0 0 1 .923 2.88 2.88 0 0 1 1.057 1.128 2.69 2.69 0 0 1-.157 1.449 5.2 5.2 0 0 0-.248 1.368 5.17 5.17 0 0 0 .248 1.367 2.68 2.68 0 0 1 .157 1.447zM10.008 3a7 7 0 1 0 7 7 7.01 7.01 0 0 0-7-7zm0 13.067A6.07 6.07 0 0 1 7.05 4.697a6.07 6.07 0 0 1 7.345 1.124l-4.447 6.258L7.539 9.67c-.184-.171-.471-.166-.648.012s-.183.464-.012.648l2.8 2.8c.087.088.206.137.33.137h.039c.137-.011.262-.083.341-.195l4.619-6.5a6.06 6.06 0 0 1-5 9.5z"/></svg>