<svg xmlns="http://www.w3.org/2000/svg" width="60" height="60"  xmlns:v="https://vecta.io/nano"><defs><clipPath id="A"><circle cx="64" cy="222" r="30" fill="#f90"/></clipPath></defs><g transform="translate(-34 -192)" clip-path="url(#A)"><path d="M45.834 241.745H81.14v-26.78h2.478v7.447h4.262v-2.51h-1.7v-7.448h-5.04v-1.252a3.81 3.81 0 0 0-3.839-3.766c-.609-.001-1.209.142-1.752.417a12.6 12.6 0 0 0-24.124 0c-.543-.275-1.143-.418-1.752-.417a3.81 3.81 0 0 0-3.839 3.766zm16.8-8.368c-.006-.346.197-.662.515-.799s.688-.068.935.175.323.611.192.931-.443.53-.789.53c-.466.004-.848-.371-.853-.837zm.853-3.347c-1.865-.016-3.392 1.482-3.412 3.347a3.28 3.28 0 0 0 .108.837h-6.672v-15.58a12.58 12.58 0 0 0 6.137 4.268v4.891h7.678v-4.891a12.58 12.58 0 0 0 6.137-4.269v15.58h-6.672a3.28 3.28 0 0 0 .108-.837c-.02-1.865-1.547-3.363-3.412-3.347zm1.28-14.34v-3.237h8.251c-1.1 1.565-4.153 2.987-8.252 3.236zm-2.559 0c-4.1-.249-7.15-1.671-8.25-3.236h8.25zm0 2.513v2.699a10.01 10.01 0 0 1-7.116-4.426 18.51 18.51 0 0 0 7.115 1.726zm0 5.228q.631.063 1.28.064.649.001 1.28-.064v1.854h-2.561zm2.558-2.529v-2.7a18.51 18.51 0 0 0 7.116-1.725 10.01 10.01 0 0 1-7.116 4.425zm8.252-10.959h-8.25v-3.241c4.097.254 7.15 1.676 8.25 3.241zm-10.809 0h-8.251c1.1-1.565 4.151-2.987 8.25-3.236zm9.675-4.024a18.51 18.51 0 0 0-7.116-1.725v-2.7a10.01 10.01 0 0 1 7.115 4.425zm-9.677-4.426v2.7a18.51 18.51 0 0 0-7.116 1.725 10.01 10.01 0 0 1 7.116-4.425zm-13.814 9.709a1.28 1.28 0 0 1 2.559 0v23.012h-2.559zm30.188 25.522v2.511H48.393v-2.511zm-2.563-2.51v-23.012a1.28 1.28 0 0 1 2.559 0v23.012z" fill="#9f9f9f"/></g></svg>