<svg xmlns="http://www.w3.org/2000/svg" width="23.257" height="22.84"  fill="#9f9f9f" xmlns:v="https://vecta.io/nano"><path d="M17.72 6.095H4.594c-.604 0-1.094.49-1.094 1.094s.49 1.094 1.094 1.094H17.72c.399.012.772-.194.975-.537s.203-.77 0-1.113-.576-.549-.975-.537zm-2.041 4.375H6.928c-.604 0-1.094.49-1.094 1.094s.49 1.094 1.094 1.094h8.751c.604 0 1.094-.49 1.094-1.094s-.49-1.094-1.094-1.094zm4-10.47H3.578A3.62 3.62 0 0 0 0 3.654v18.272a.914.914 0 0 0 .515.828.88.88 0 0 0 .952-.126l5.118-4.356h13.094a3.62 3.62 0 0 0 3.578-3.654V3.654A3.62 3.62 0 0 0 19.679 0zm1.789 14.618a1.81 1.81 0 0 1-1.789 1.827H6.262a.882.882 0 0 0-.572.212l-3.9 3.32V3.654a1.81 1.81 0 0 1 1.788-1.827h16.1a1.81 1.81 0 0 1 1.789 1.827z"/></svg>