<svg xmlns="http://www.w3.org/2000/svg" xmlns:xlink="http://www.w3.org/1999/xlink" width="41" height="45.351" xmlns:v="https://vecta.io/nano"><g fill="#707070"><path d="M20.711 32.193c-.552 0-1-.692-1-1.546V13.743c0-.854.448-1.546 1-1.546s1 .692 1 1.546v16.9c0 .858-.448 1.55-1 1.55z"/><path d="M4.054 32.283a.9.9 0 0 1-.931-.865V18.783a.9.9 0 0 1 .931-.865h16.405c.323-.022.631.138.8.415s.168.624 0 .901-.477.437-.8.415H4.985v11.767a.9.9 0 0 1-.931.868z"/><path d="M37.459 32.283a.9.9 0 0 0 .931-.865V18.783a.9.9 0 0 0-.931-.865H21.054c-.323-.022-.631.138-.8.415s-.168.624 0 .901.477.437.8.415h15.474v11.767a.9.9 0 0 0 .931.868z"/></g><g fill="#9f9f9f"><path d="M17.435 11.351c.255-.017.449-.237.434-.492V7.202c-.026-.452.317-.84.769-.87h4.725c.452.03.795.418.769.87v3.655a.44.44 0 0 0 .669.425.44.44 0 0 0 .2-.425V7.202a1.76 1.76 0 0 0-1.638-1.853h-4.726a1.76 1.76 0 0 0-1.633 1.853v3.655c-.016.255.176.475.431.494z"/><use xlink:href="#B"/><path d="M.435 45.351c.255-.017.449-.237.434-.492v-3.657c-.026-.452.317-.84.769-.87h4.725c.452.03.795.418.769.87v3.655a.44.44 0 0 0 .669.425.44.44 0 0 0 .2-.425v-3.655a1.76 1.76 0 0 0-1.638-1.853H1.637a1.76 1.76 0 0 0-1.633 1.853v3.655c-.016.255.176.475.431.494z"/><use xlink:href="#B" x="-17" y="34"/><use xlink:href="#C"/><use xlink:href="#B" y="34"/><use xlink:href="#C" x="16"/><use xlink:href="#B" x="16" y="34"/></g><defs ><path id="B" d="M20.931 5a2.5 2.5 0 1 0 0-5 2.5 2.5 0 1 0 0 5zm0-4.124c.657 0 1.249.396 1.5 1.003s.112 1.305-.352 1.77-1.163.603-1.77.352-1.003-.844-1.003-1.5c.001-.896.728-1.623 1.624-1.624z"/><path id="C" d="M17.435 45.351c.255-.017.449-.237.434-.492v-3.657c-.026-.452.317-.84.769-.87h4.725c.452.03.795.418.769.87v3.655a.44.44 0 0 0 .669.425.44.44 0 0 0 .2-.425v-3.655a1.76 1.76 0 0 0-1.638-1.853h-4.726a1.76 1.76 0 0 0-1.633 1.853v3.655c-.016.255.176.475.431.494z"/></defs></svg>