<svg xmlns="http://www.w3.org/2000/svg" width="50" height="50" viewBox="0 0 60 60"  xmlns:v="https://vecta.io/nano"><g transform="translate(-307 -100)" clip-path="url(#clip-path)"><path d="M351.954 116.349V105.32h-29.598v11.029l-7.356 5.48v22.567a5.2 5.2 0 0 0 5.193 5.187h33.924a5.2 5.2 0 0 0 5.193-5.187v-22.567zm2.58 6.236l-2.58 1.917v-3.84zm-6.042-13.807v18.3l-11.337 8.42-11.337-8.424v-18.296zm-26.136 15.724l-2.58-1.917 2.58-1.922zm31.761 21.618h-33.924a1.73 1.73 0 0 1-1.731-1.729V125.92l18.693 13.887 18.693-13.887v18.476a1.73 1.73 0 0 1-1.731 1.724zM334.9 117.682h-3.457c.002-1.587.68-3.098 1.863-4.156a5.81 5.81 0 0 1 4.509-1.428 5.69 5.69 0 0 1 5.02 4.973c.116 1.955-.694 3.85-2.188 5.116l-.73.7c-1 .943-1.031 1.031-1.031 1.547v.075h-3.462v-.075c0-2.061 1.027-3.031 2.113-4.058l.665-.641c.912-.908 1.268-1.592 1.191-2.286-.129-1.015-.94-1.809-1.958-1.916a2.31 2.31 0 0 0-1.82.566 2.1 2.1 0 0 0-.715 1.583zm.519 9.51h3.462v3.458h-3.457z" fill="#9f9f9f"/></g></svg>