<svg xmlns="http://www.w3.org/2000/svg" xmlns:xlink="http://www.w3.org/1999/xlink" width="40" height="46.351" xmlns:v="https://vecta.io/nano"><g fill="#9f9f9f"><path d="M.435 11.351c.255-.017.449-.237.434-.492V7.202c-.026-.452.317-.84.769-.87h4.725c.452.03.795.418.769.87v3.655a.44.44 0 0 0 .669.425.44.44 0 0 0 .2-.425V7.202a1.76 1.76 0 0 0-1.638-1.853H1.637A1.76 1.76 0 0 0 .004 7.202v3.655c-.016.255.176.475.431.494z"/><use xlink:href="#B"/></g><g fill="#707070"><use xlink:href="#C"/><use xlink:href="#D"/></g><g fill="#9f9f9f"><path d="M32.435 11.351c.255-.017.449-.237.434-.492V7.202c-.026-.452.317-.84.769-.87h4.725c.452.03.795.418.769.87v3.655a.44.44 0 0 0 .669.425.44.44 0 0 0 .2-.425V7.202a1.76 1.76 0 0 0-1.638-1.853h-4.726a1.76 1.76 0 0 0-1.633 1.853v3.655c-.016.255.176.475.431.494z"/><use xlink:href="#B" x="32"/></g><g fill="#707070"><use xlink:href="#D" x="32"/><use xlink:href="#C" y="33"/></g><g fill="#9f9f9f"><path d="M.435 46.351c.255-.017.449-.237.434-.492v-3.657c-.026-.452.317-.84.769-.87h4.725c.452.03.795.418.769.87v3.655a.44.44 0 0 0 .669.425.44.44 0 0 0 .2-.425v-3.655a1.76 1.76 0 0 0-1.638-1.853H1.637a1.76 1.76 0 0 0-1.633 1.853v3.655c-.016.255.176.475.431.494z"/><use xlink:href="#B" y="35"/><path d="M32.435 46.351c.255-.017.449-.237.434-.492v-3.657c-.026-.452.317-.84.769-.87h4.725c.452.03.795.418.769.87v3.655a.44.44 0 0 0 .669.425.44.44 0 0 0 .2-.425v-3.655a1.76 1.76 0 0 0-1.638-1.853h-4.726a1.76 1.76 0 0 0-1.633 1.853v3.655c-.016.255.176.475.431.494z"/><use xlink:href="#B" x="32" y="35"/></g><g fill="#707070"><path d="M8.64 37.263c-.39-.39-.218-1.196.386-1.8l21.193-21.38c.604-.604 1.41-.776 1.8-.386s.218 1.196-.386 1.8L10.443 36.874c-.607.607-1.413.779-1.803.389z"/><path d="M32.022 37.263c.39-.39.218-1.196-.386-1.8L10.439 14.08c-.604-.604-1.41-.776-1.8-.386s-.218 1.196.386 1.8l21.197 21.384c.603.603 1.409.776 1.8.385z"/></g><defs ><path id="B" d="M3.931 5a2.5 2.5 0 1 0 0-5 2.5 2.5 0 1 0 0 5zm0-4.124c.657 0 1.249.396 1.5 1.003s.112 1.305-.352 1.77-1.163.603-1.77.352-1.003-.844-1.003-1.5c.001-.896.728-1.623 1.624-1.624z"/><path id="C" d="M9.711 9.193c0-.552.692-1 1.546-1h16.904c.854 0 1.546.448 1.546 1s-.692 1-1.546 1h-16.9c-.858 0-1.55-.448-1.55-1z"/><path id="D" d="M3.711 33.192c-.552 0-1-.692-1-1.546V14.742c0-.854.448-1.546 1-1.546s1 .692 1 1.546v16.9c0 .858-.448 1.55-1 1.55z"/></defs></svg>