<svg xmlns="http://www.w3.org/2000/svg" width="100" height="100"  fill="#2eb473" xmlns:v="https://vecta.io/nano"><path d="M50 100A50 50 0 1 1 76.346 7.5a2.942 2.942 0 0 1-3.1 5 44.045 44.045 0 1 0 18.513 23.231 2.942 2.942 0 0 1 5.567-1.9A50.032 50.032 0 0 1 50 100zm-5.801-30.036a2.62 2.62 0 0 1-1.87-.8L23.785 51.005c-1.1-1.112-1.364-4.022.813-6.214.772-.805 1.839-1.26 2.954-1.26a4.09 4.09 0 0 1 2.954 1.26l13.231 12.67c.47.47.932-.21.932-.21l36.781-36.9c.97-1.242 4.152-1.457 5.914.542s1.866 4.245.893 5.488L46.285 68.918a2.67 2.67 0 0 1-1.929 1.042l-.157.004z"/></svg>