<svg xmlns="http://www.w3.org/2000/svg" width="22" height="22" viewBox="0 0 512 512"  xmlns:v="https://vecta.io/nano"><path fill="#9f9f9f" d="M238.47 0h35.06c27.98 3.73 55.49 13.36 78.42 30.07C373.38 44.82 390.9 65 402.93 88.04c14.66 26.73 20.06 57.7 19.25 87.96-.54 13.59 1.92 28.63-5.29 40.97-4.03 7.28-9.71 13.75-16.97 17.94-11.22 7.84-25.8 5.6-38.69 6.3-3.68 17.98-10.07 35.8-21.9 50.11-6.52 7.83-13.82 15.1-22.09 21.1l-.3 18.46c15.87.01 32.02-.46 47.52 3.59 45.58 10.19 85.6 42.8 104.52 85.53 10.38 22.09 14.06 46.79 13.23 71.04-.6 4.12.62 8.88-1.51 12.72-2.08 3.15-4.67 6-7.73 8.24H38.94c-3.33-3.26-7.6-6.4-8.48-11.25-1.95-23.32-.17-47.31 7.94-69.41 16.83-48.3 59.94-86.45 110.03-96.94 15.21-4.02 31.04-3.52 46.63-3.52l-.3-18.47c-11.31-8.29-21.23-18.59-28.73-30.46-7.9-12.34-12.34-26.48-15.24-40.74-10.5-.27-21.25.34-31.46-2.56-15.37-6.16-27.79-20.91-29.04-37.71-.83-14.94-.54-29.93.05-44.88 1.33-31.23 12.23-61.91 30.51-87.23C147.9 30.46 192.04 5.55 238.47 0m-30.71 39.69c-46.48 17.63-81.27 62.44-86.07 112.02 9.64-1.62 19.44-1.72 29.2-1.97 2.58-10.48 4.81-21.2 10.03-30.78 17.29-36.61 57.47-61.34 98.1-58.98 34.38.04 67.51 19.29 85.93 48.08 8.46 12.54 13.14 27.02 16.15 41.72 9.7.27 19.44.55 29.06 2-3.81-41.11-28.24-79.07-63.21-100.72-35-22.36-80.56-26.4-119.19-11.37m-21.61 99.46c-7.48 18.37-4.78 38.57-5.2 57.85.27 17.65-1.31 35.86 4.29 52.91 9.18 27.85 36.14 48.57 65.34 50.6 16.22.8 33.04-3.09 46.44-12.5 16.79-10.3 27.53-28.17 32.37-46.94-24.8-.42-49.6.41-74.39-.24-11.05 1.28-18.21-12.87-12.94-21.81 2.52-7.85 11.93-8.86 18.9-8.97l70.01-.07c-.73-22.84 2.7-46.49-4.32-68.67-10.5-30.96-42.77-53.08-75.62-50.2-28.71 1.33-54.63 21.54-64.88 48.04m-55.83 43.18c-8.96 3.32-12.33 15.97-5.65 23.01 6.53 7.1 16.91 4.27 25.34 4.8l.03-29.32c-6.53.56-13.38-.41-19.72 1.51m231.67-1.55l-.02 29.33c6.45-.13 12.94.02 19.36-.82 8.8-2.76 13-15.01 6.51-22.12-5.73-8.3-17.37-5.84-25.85-6.39M225.9 327.93c.54 11.95-1.63 25.7 6.41 35.78 4.37 5.1 9.78 10.17 16.65 11.39 12.86 3.67 26.92-3.61 33.06-15.07 5.52-9.76 3.34-21.58 4.11-32.26-8.33 1.71-16.69 3.37-25.17 4.12-11.81.29-23.53-1.57-35.06-3.96m-85.79 41.2c-21.59 8.28-41.31 22.22-54.98 41.02-15.31 20.23-24.23 45.42-24.39 70.84H120l.06-43.03c-1.28-9.75 8.87-19.15 18.5-16.47 7 .87 12.19 7.6 12.46 14.45.26 15.01-.11 30.02-.02 45.04l210 .01.06-43.03c-.96-8.21 5.69-16.41 13.95-16.79 8.54-1.11 16.83 6.28 17.02 14.77.25 15.01-.13 30.03-.04 45.05l59.19-.01c-.08-44.08-26.84-86.35-66.16-106-21.34-11.29-46.04-14.63-69.91-13-2.51 6.57-5.36 13.05-9.08 19.04-7.87 11.96-20.64 19.66-33.94 24.28-.07 11.04.35 22.12-.69 33.13-.08 7.13-6.69 12.8-13.38 13.69-8.57 1.39-17.39-5.69-17.68-14.41-.93-10.75-.26-21.59-.46-32.37-10.54-3.88-20.98-9.17-28.56-17.64-6.99-7.17-10.82-16.56-14.42-25.72-19.15-.65-38.65.44-56.79 7.15z"/></svg>