<svg  width="21" height="22.84" viewBox="0 0 512 512" version="1.1" xmlns="http://www.w3.org/2000/svg">
<g id="#ccccccff">
<path fill="#9f9f9f" opacity="1.00" d=" M 215.07 0.00 L 296.98 0.00 C 316.70 3.91 333.72 20.70 335.95 40.97 C 336.14 48.64 335.92 56.32 336.00 64.00 C 367.34 64.04 398.69 63.93 430.03 64.05 C 447.20 65.86 462.14 80.80 463.95 97.97 C 464.10 118.98 463.91 140.00 464.04 161.02 C 464.75 169.08 457.08 176.75 449.02 176.04 C 446.08 176.05 443.14 176.00 440.21 175.99 C 434.45 274.14 430.89 372.41 425.62 470.60 C 423.42 491.07 406.69 507.67 386.94 512.00 L 125.02 512.00 C 105.31 507.45 88.54 491.17 86.37 470.60 C 81.11 372.41 77.54 274.14 71.79 175.99 C 68.85 176.00 65.92 176.05 62.98 176.04 C 54.92 176.75 47.25 169.08 47.96 161.02 C 48.09 140.01 47.90 118.99 48.05 97.98 C 49.82 80.72 64.83 66.03 81.97 64.04 C 113.31 63.94 144.66 64.03 176.00 64.00 C 176.08 56.32 175.86 48.64 176.05 40.97 C 178.29 20.69 195.32 3.86 215.07 0.00 M 211.36 39.35 C 206.84 46.73 208.20 55.76 208.00 64.00 C 240.00 64.00 272.00 64.00 304.00 64.00 C 303.80 55.76 305.16 46.73 300.64 39.34 C 296.82 33.55 289.47 32.13 283.01 31.98 C 265.00 32.01 247.00 32.01 228.99 31.98 C 222.53 32.13 215.18 33.55 211.36 39.35 M 80.16 105.14 C 79.77 118.08 80.12 131.05 80.00 144.00 C 197.33 144.00 314.67 144.00 432.00 144.00 C 431.88 131.05 432.23 118.08 431.85 105.14 C 431.53 99.38 426.50 95.92 421.04 96.00 C 311.01 96.00 200.99 96.00 90.96 96.00 C 85.50 95.92 80.47 99.38 80.16 105.14 M 104.76 176.02 C 107.01 183.80 105.37 191.91 106.27 199.82 C 108.13 207.49 105.87 215.51 107.73 223.18 C 108.56 229.36 107.44 235.64 108.27 241.82 C 110.13 249.49 107.87 257.51 109.73 265.18 C 110.56 271.36 109.44 277.64 110.27 283.82 C 112.13 291.49 109.87 299.50 111.73 307.17 C 112.57 313.35 111.44 319.64 112.27 325.82 C 114.13 333.49 111.87 341.51 113.73 349.18 C 114.57 355.36 113.43 361.65 114.27 367.83 C 116.13 375.50 113.87 383.51 115.73 391.17 C 116.50 397.08 115.58 403.07 116.14 408.99 C 118.15 417.53 115.86 426.42 117.95 434.96 C 117.35 445.40 119.26 455.63 119.02 466.04 C 120.59 474.43 128.53 480.20 136.96 479.95 C 215.64 480.08 294.32 479.94 373.00 480.02 C 378.35 479.85 384.14 479.04 388.15 475.15 C 393.42 470.02 393.38 462.77 393.05 455.97 C 395.15 447.43 392.85 438.53 394.86 429.99 C 395.42 424.07 394.50 418.08 395.27 412.18 C 397.13 404.51 394.87 396.49 396.73 388.82 C 397.56 382.64 396.43 376.36 397.27 370.18 C 399.13 362.51 396.87 354.49 398.73 346.83 C 399.56 340.64 398.43 334.36 399.27 328.18 C 401.13 320.51 398.87 312.49 400.73 304.82 C 401.56 298.64 400.43 292.35 401.27 286.17 C 403.13 278.50 400.87 270.49 402.73 262.82 C 403.56 256.64 402.43 250.36 403.27 244.18 C 405.13 236.51 402.87 228.49 404.73 220.82 C 405.50 214.91 404.58 208.93 405.14 203.01 C 407.23 194.13 404.65 184.84 407.24 176.02 C 306.41 175.99 205.59 175.99 104.76 176.02 Z" />
<path fill="#9f9f9f" opacity="1.00" d=" M 170.37 208.33 C 179.23 205.83 190.38 210.11 191.97 219.96 C 192.05 291.65 191.96 363.34 192.01 435.04 C 191.51 442.70 183.68 449.14 176.00 448.06 C 167.63 449.25 159.15 441.47 159.97 433.00 C 160.07 361.99 159.94 290.97 160.03 219.96 C 160.94 214.56 165.28 210.12 170.37 208.33 Z" />
<path fill="#9f9f9f" opacity="1.00" d=" M 250.37 208.33 C 259.23 205.82 270.38 210.11 271.97 219.96 C 272.05 291.65 271.96 363.34 272.01 435.04 C 271.51 442.70 263.67 449.14 256.00 448.06 C 247.63 449.25 239.16 441.48 239.97 433.01 C 240.07 361.99 239.93 290.97 240.03 219.96 C 240.94 214.56 245.28 210.12 250.37 208.33 Z" />
<path fill="#9f9f9f" opacity="1.00" d=" M 330.37 208.33 C 339.23 205.82 350.38 210.10 351.97 219.96 C 352.05 291.65 351.96 363.35 352.01 435.04 C 351.50 442.71 343.67 449.14 336.00 448.06 C 327.63 449.25 319.16 441.47 319.97 433.00 C 320.07 361.99 319.94 290.97 320.03 219.96 C 320.94 214.57 325.27 210.12 330.37 208.33 Z" />
</g>
</svg>
