<svg xmlns="http://www.w3.org/2000/svg" width="100" height="90"  fill="#e8af14" xmlns:v="https://vecta.io/nano"><path d="M98.817 76.532L57.658 4.488A8.78 8.78 0 0 0 50.002.002a8.78 8.78 0 0 0-7.657 4.486L1.181 76.537a9.12 9.12 0 0 0 0 8.976C2.744 88.274 5.666 89.986 8.839 90h82.323c3.173-.014 6.095-1.727 7.658-4.488a9.12 9.12 0 0 0 0-8.981zm-5.071 6.007c-.528.931-1.514 1.507-2.584 1.511H8.839c-1.071-.005-2.057-.582-2.584-1.514-.53-.938-.53-2.086 0-3.024l41.161-72.05a2.96 2.96 0 0 1 5.17.005l41.159 72.044c.532.939.532 2.088.001 3.028zm-43.276-54.3c-2.485 0-4.5 2.463-4.5 5.5v22c0 3.037 2.015 5.5 4.5 5.5s4.5-2.463 4.5-5.5v-22c0-3.038-2.015-5.5-4.5-5.5z"/><circle cx="50.182" cy="69.319" r="4.5"/></svg>