<svg xmlns="http://www.w3.org/2000/svg" width="50" height="43"  xmlns:v="https://vecta.io/nano"><path d="M32.238 34.861a.6.6 0 0 0-.862 0l-5.851 6V23.624a.61.61 0 0 0-.914-.527.61.61 0 0 0-.304.527v17.241l-5.851-6a.6.6 0 0 0-.862 0c-.238.247-.238.637 0 .884l6.89 7.07a.6.6 0 0 0 .862 0l6.89-7.07c.238-.247.238-.637 0-.884zM47.5.1L2.5 0C1.22-.091.106.865 0 2.143v25.714C.106 29.135 1.22 30.091 2.5 30h15.333a.72.72 0 0 0 .717-1.107.72.72 0 0 0-.717-.321H2.5a.78.78 0 0 1-.833-.714V8.571h46.666v19.286a.78.78 0 0 1-.833.714H32.167a.72.72 0 0 0-.717 1.107.72.72 0 0 0 .717.321H47.5c1.28.091 2.394-.865 2.5-2.143V2.143a2.27 2.27 0 0 0-.824-1.542A2.28 2.28 0 0 0 47.5.1zm-45 1.329h45a.78.78 0 0 1 .833.714v3.571H1.667V2.143a.78.78 0 0 1 .833-.714zM25.167 14H6.833c-.482-.089-.832-.51-.832-1s.35-.911.832-1h18.334c.482.089.832.51.832 1s-.35.911-.832 1zm0 0"/></svg>